<svg xmlns="http://www.w3.org/2000/svg" data-name="Layer 1" viewBox="0 0 32 32"><path fill="#2e7d32" d="M18.53 11.69C12.29 8 4.8 5.45 3.06 8.41s4.18 8.25 10.41 11.9c4.33 2.54 9.28 4.56 12.48 4.56a3.21 3.21 0 0 0 3-1.29c1.73-2.96-4.19-8.24-10.42-11.89Z"/><path fill="#4caf50" d="M29 8.47c-1.72-3-9.24-.42-15.48 3.21S1.3 20.56 3 23.53a3.23 3.23 0 0 0 3 1.3c3.2 0 8.13-2 12.46-4.51C24.76 16.7 30.7 11.44 29 8.47Z"/><path fill="#81c784" d="M16 1c-3.44 0-5 7.78-5 15s1.56 15 5 15 5-7.78 5-15-1.56-15-5-15Z"/><path fill="#1b5e20" d="m18.53 11.69-.29-.16-4.48 9c4.26 2.46 9.06 4.4 12.19 4.4a3.21 3.21 0 0 0 3-1.29c1.73-3.02-4.19-8.3-10.42-11.95Z"/><path fill="#43a047" d="M29 8.47c-1.17-2-5-1.49-9.3.2l-7.36 14.66a45.76 45.76 0 0 0 6.18-3C24.76 16.7 30.7 11.44 29 8.47Z"/><path fill="#66bb6a" d="M11.78 24.43C12.57 28.21 13.95 31 16 31c3.44 0 5-7.78 5-15a43 43 0 0 0-.78-8.43Z"/><path d="M20.38 8.42C19.66 4.36 18.27 1 16 1c-1.6 0-2.87 1.62-3.79 4.83a1 1 0 1 0 1.92.55C14.92 3.62 15.77 3 16 3c.71 0 2.64 3.28 3 11a1 1 0 0 0 1 1 1 1 0 0 0 1-1c0-1.15-.14-2.34-.28-3.5 4.44-1.67 6.38-1.29 6.58-.94.45.78-2.33 4.81-9.76 9.1a45.42 45.42 0 0 1-4.26 2.17A45.1 45.1 0 0 1 13 16c0-1 0-2 .09-2.93a1 1 0 1 0-2-.12C11 13.93 11 15 11 16a47.57 47.57 0 0 0 .32 5.56 25.34 25.34 0 0 1-2.72.87c-2.78.7-3.74.27-3.86.07S4.92 21 7 19a1 1 0 0 0-1.41-1.41C3 20.06 2.18 22.06 3 23.5a3.17 3.17 0 0 0 3 1.32 12.94 12.94 0 0 0 3.08-.45 26.5 26.5 0 0 0 2.54-.79C12.36 27.79 13.79 31 16 31c2.92 0 4.12-5.42 4.58-8.65a1 1 0 0 0-2-.28C17.85 27.36 16.43 29 16 29c-.62 0-1.8-2.08-2.48-6.17a46.78 46.78 0 0 0 5-2.5C24.76 16.72 30.71 11.47 29 8.5c-1.29-2.22-5.56-1.19-8.62-.08Z"/><path d="M3 8.5c-1.42 2.5 2.53 6.16 5 8.13a1 1 0 0 0 1.24-1.57c-4-3.21-4.73-5.2-4.52-5.56.35-.6 4.07-.64 10.8 2.83a1 1 0 1 0 .92-1.78C11.26 7.87 4.61 5.72 3 8.5zm20.25 13.89a1 1 0 0 0-.5 1.94 13.25 13.25 0 0 0 3.25.49 3.16 3.16 0 0 0 3-1.31c.8-1.38 0-3.29-2.27-5.68a1 1 0 1 0-1.44 1.39c2 2.05 2.09 3.09 2 3.29s-1.15.63-4.04-.12z"/></svg>